<?xml version="1.0" standalone="no"?><!DOCTYPE svg PUBLIC "-//W3C//DTD SVG 1.1//EN" "http://www.w3.org/Graphics/SVG/1.1/DTD/svg11.dtd"><svg t="1593601567105" class="icon" viewBox="0 0 1024 1024" version="1.1" xmlns="http://www.w3.org/2000/svg" p-id="1789" xmlns:xlink="http://www.w3.org/1999/xlink" width="128" height="128"><defs><style type="text/css"></style></defs><path d="M364.088889 307.2C392.533333 358.4 443.733333 398.222222 512 398.222222c96.711111 0 170.666667-73.955556 170.666667-170.666666s-73.955556-170.666667-170.666667-170.666667-170.666667 73.955556-170.666667 170.666667v22.755555c-91.022222 51.2-153.6 142.222222-170.666666 250.311111L227.555556 512c11.377778-85.333333 62.577778-159.288889 136.533333-204.8zM512 113.777778c62.577778 0 113.777778 51.2 113.777778 113.777778s-51.2 113.777778-113.777778 113.777777-113.777778-51.2-113.777778-113.777777 51.2-113.777778 113.777778-113.777778zM512 836.266667c-28.444444 0-62.577778-5.688889-91.022222-11.377778l-34.133334-17.066667c5.688889-22.755556 11.377778-45.511111 11.377778-68.266666 0-96.711111-73.955556-170.666667-170.666666-170.666667s-170.666667 73.955556-170.666667 170.666667 73.955556 170.666667 170.666667 170.666666c51.2 0 96.711111-22.755556 125.155555-56.888889 17.066667 5.688889 34.133333 17.066667 51.2 22.755556 34.133333 11.377778 68.266667 17.066667 108.088889 17.066667 34.133333 0 62.577778-5.688889 96.711111-11.377778l-17.066667-56.888889c-28.444444 5.688889-56.888889 11.377778-79.644444 11.377778zM227.555556 853.333333c-62.577778 0-113.777778-51.2-113.777778-113.777777s51.2-113.777778 113.777778-113.777778 113.777778 51.2 113.777777 113.777778-51.2 113.777778-113.777777 113.777777zM847.644444 580.266667v-28.444445c0-91.022222-39.822222-182.044444-102.4-244.622222l-39.822222 39.822222c56.888889 51.2 91.022222 125.155556 91.022222 204.8v17.066667c-91.022222 0-164.977778 79.644444-164.977777 170.666667 0 96.711111 73.955556 170.666667 170.666666 170.666666s170.666667-73.955556 170.666667-170.666666c-5.688889-73.955556-56.888889-136.533333-125.155556-159.288889zM796.444444 853.333333c-62.577778 0-113.777778-51.2-113.777777-113.777777s51.2-113.777778 113.777777-113.777778 113.777778 51.2 113.777778 113.777778-51.2 113.777778-113.777778 113.777777z" fill="#bdbaba" p-id="1790"></path></svg>